<svg width="306" height="42" viewBox="0 0 306 42" fill="none" xmlns="http://www.w3.org/2000/svg">
<path d="M62.9606 33.7817V31.2512C64.4066 33.6732 67.1539 34.2155 68.7083 34.2155C73.3354 34.2155 77.2756 30.2752 77.2756 24.4914C77.2756 18.9606 73.733 14.7311 68.5276 14.7311C66.7563 14.7311 64.7319 15.3457 63.4667 17.2616V7.93512H57.1768V33.7817H62.9606ZM63.3221 24.4191C63.3221 21.8163 64.9849 20.2258 67.19 20.2258C69.2505 20.2258 70.9495 21.8163 70.9495 24.4191C70.9495 27.0218 69.2505 28.7208 67.19 28.7208C64.9849 28.7208 63.3221 27.058 63.3221 24.4191Z" fill="white"/>
<path d="M93.0928 14.8757C92.8036 14.7673 92.406 14.7311 91.936 14.7311C89.4779 14.7311 87.6704 16.0687 86.6944 18.346V15.1649H80.4406V33.7817H86.7306V26.9495C86.7306 23.0454 88.5019 20.6234 91.683 20.6234C92.3337 20.6234 92.8036 20.6957 93.0928 20.8403V14.8757Z" fill="white"/>
<path d="M95.5145 33.7817H101.804V15.1649H95.5145V33.7817ZM95.2615 9.95947C95.2615 11.8392 96.7074 13.2129 98.6233 13.2129C100.539 13.2129 102.021 11.8392 102.021 9.95947C102.021 8.07972 100.539 6.70605 98.6233 6.70605C96.7074 6.70605 95.2615 8.07972 95.2615 9.95947Z" fill="white"/>
<path d="M110.437 24.5637L104.039 33.7817H111.015L114.052 28.8654L117.088 33.7817H124.065L117.667 24.5637L124.21 15.1649H117.052L114.052 20.3342L111.052 15.1649H103.894L110.437 24.5637Z" fill="white"/>
<path d="M131.457 18.816H133.842V26.2627C133.842 30.6006 136.301 32.9864 140.349 32.9864C142.193 32.9864 143.603 32.5888 144.579 32.1188V26.8049C143.82 27.3472 142.916 27.4917 142.157 27.4917C141 27.4917 140.132 26.8049 140.132 25.2144V18.816H144.073V13.9359H140.132V8.91115H134.023V13.9359H131.457V18.816Z" fill="white"/>
<path d="M163.916 24.7444C164.097 24.166 164.277 23.0454 164.277 22.0694C164.277 16.9724 160.662 13.5021 155.349 13.5021C149.854 13.5021 145.661 17.7677 145.661 23.2623C145.661 28.757 149.745 32.9864 156.108 32.9864C159.253 32.9864 161.711 32.1911 164.169 29.986L160.988 26.0096C160.084 26.8772 158.602 27.7448 156.578 27.7448C154.445 27.7448 152.42 26.8411 152.131 24.7444H163.916ZM155.204 18.4906C156.831 18.4906 158.096 19.5028 158.204 21.0934V21.1295H152.023C152.131 19.4305 153.577 18.4906 155.204 18.4906Z" fill="white"/>
<path d="M167.369 13.9359V32.5526H173.659V22.7562C173.659 20.4427 174.852 18.9967 176.623 18.9967C178.503 18.9967 179.515 20.1535 179.515 22.3224V32.5526H185.805V22.7562C185.805 20.4427 187.07 18.9967 188.769 18.9967C190.649 18.9967 191.661 20.1535 191.661 22.3224V32.5526H197.951V21.2018C197.951 16.394 195.276 13.5021 190.757 13.5021C187.612 13.5021 185.913 14.9119 184.648 16.5386C183.383 14.5504 181.359 13.5021 178.611 13.5021C176.406 13.5021 174.635 14.2612 173.37 16.141V13.9359H167.369Z" fill="white"/>
<path d="M202.212 39.7824H208.502V30.7452C209.695 32.4803 211.791 32.9864 213.563 32.9864C218.768 32.9864 222.311 28.757 222.311 23.2262C222.311 17.4423 218.262 13.5021 213.635 13.5021C212.117 13.5021 209.55 14.0443 207.996 16.4663V13.9359H202.212V39.7824ZM208.357 23.2985C208.357 20.6596 210.02 18.9967 212.225 18.9967C214.286 18.9967 215.985 20.6957 215.985 23.2985C215.985 25.9012 214.286 27.4917 212.225 27.4917C210.02 27.4917 208.357 25.9012 208.357 23.2985Z" fill="white"/>
<path d="M225.259 26.9857C225.259 30.8898 227.5 32.9864 231.404 32.9864C232.669 32.9864 233.645 32.7695 234.332 32.4442V27.3833C233.862 27.564 233.428 27.6002 233.103 27.6002C231.657 27.6002 231.549 26.6965 231.549 25.8289V6.70605H225.259V26.9857Z" fill="white"/>
<path d="M242.109 32.9864C244.567 32.9864 246.194 31.9019 246.917 30.4921V32.5526H252.737V20.9126C252.737 16.2855 249.555 13.5021 244.169 13.5021C240.518 13.5021 237.518 15.0926 235.927 17.117L239.217 21.0572C240.193 19.9366 241.711 18.8521 243.844 18.8521C245.398 18.8521 246.736 19.3944 246.736 20.9488V20.9849L241.928 21.9248C238.024 22.7562 235.855 24.636 235.855 27.3833C235.855 30.6729 238.494 32.9864 242.109 32.9864ZM246.736 24.7806V25.0698C246.736 27.1303 245.579 28.4678 243.591 28.4678C242.47 28.4678 241.856 27.8894 241.856 26.9857C241.856 26.0819 242.579 25.612 243.699 25.359L246.736 24.7806Z" fill="white"/>
<path d="M254.978 18.816H257.363V26.2627C257.363 30.6006 259.821 32.9864 263.87 32.9864C265.714 32.9864 267.124 32.5888 268.1 32.1188V26.8049C267.34 27.3472 266.437 27.4917 265.678 27.4917C264.521 27.4917 263.653 26.8049 263.653 25.2144V18.816H267.594V13.9359H263.653V8.91115H257.544V13.9359H254.978V18.816Z" fill="white"/>
<path d="M287.437 24.7444C287.618 24.166 287.798 23.0454 287.798 22.0694C287.798 16.9724 284.183 13.5021 278.869 13.5021C273.375 13.5021 269.182 17.7677 269.182 23.2623C269.182 28.757 273.266 32.9864 279.629 32.9864C282.774 32.9864 285.232 32.1911 287.69 29.986L284.509 26.0096C283.605 26.8772 282.123 27.7448 280.099 27.7448C277.966 27.7448 275.941 26.8411 275.652 24.7444H287.437ZM278.725 18.4906C280.352 18.4906 281.617 19.5028 281.725 21.0934V21.1295H275.544C275.652 19.4305 277.098 18.4906 278.725 18.4906Z" fill="white"/>
<path d="M297.324 32.9864C301.951 32.9864 305.06 30.4198 305.06 27.0941C305.06 23.4069 302.205 22.4309 299.276 21.2741C296.638 20.1535 295.517 19.9727 295.517 19.2859C295.517 18.5991 296.348 18.2014 297.324 18.2014C299.06 18.2014 300.036 19.0329 300.65 20.0812L304.554 17.2616C303.397 15.0565 300.686 13.5021 297.505 13.5021C293.312 13.5021 289.805 15.5264 289.805 19.2498C289.805 22.2501 291.866 23.7322 295.517 25.0336C298.084 25.9373 299.349 26.2627 299.349 27.2387C299.349 27.9255 298.662 28.287 297.397 28.287C295.517 28.287 294.071 27.1303 293.203 25.6481L289.191 28.7208C290.745 31.4681 293.854 32.9864 297.324 32.9864Z" fill="white"/>
<path fill-rule="evenodd" clip-rule="evenodd" d="M35.1537 12.3952C38.3953 12.3952 41.0232 9.76738 41.0232 6.52575C41.0232 3.28411 38.3953 0.65625 35.1537 0.65625C31.912 0.65625 29.2842 3.28411 29.2842 6.52575C29.2842 9.76738 31.912 12.3952 35.1537 12.3952Z" fill="white"/>
<path opacity="0.9" fill-rule="evenodd" clip-rule="evenodd" d="M35.1537 26.4786C38.3953 26.4786 41.0232 23.8511 41.0232 20.6099C41.0232 17.3687 38.3953 14.7412 35.1537 14.7412C31.912 14.7412 29.2842 17.3687 29.2842 20.6099C29.2842 23.8511 31.912 26.4786 35.1537 26.4786Z" fill="white"/>
<path opacity="0.8" fill-rule="evenodd" clip-rule="evenodd" d="M35.1537 41.0867C38.3953 41.0867 41.0232 38.4588 41.0232 35.2172C41.0232 31.9755 38.3953 29.3477 35.1537 29.3477C31.912 29.3477 29.2842 31.9755 29.2842 35.2172C29.2842 38.4588 31.912 41.0867 35.1537 41.0867Z" fill="white"/>
<g opacity="0.8">
<path d="M20.546 26.4777C23.7872 26.4777 26.4147 23.8501 26.4147 20.6089C26.4147 17.3677 23.7872 14.7402 20.546 14.7402C17.3048 14.7402 14.6773 17.3677 14.6773 20.6089C14.6773 23.8501 17.3048 26.4777 20.546 26.4777Z" fill="white"/>
<path d="M20.546 26.4777C23.7872 26.4777 26.4147 23.8501 26.4147 20.6089C26.4147 17.3677 23.7872 14.7402 20.546 14.7402C17.3048 14.7402 14.6773 17.3677 14.6773 20.6089C14.6773 23.8501 17.3048 26.4777 20.546 26.4777Z" stroke="#A0A3BD"/>
</g>
<path opacity="0.7" fill-rule="evenodd" clip-rule="evenodd" d="M20.5455 41.0857C23.7867 41.0857 26.4143 38.4578 26.4143 35.2162C26.4143 31.9745 23.7867 29.3467 20.5455 29.3467C17.3043 29.3467 14.6768 31.9745 14.6768 35.2162C14.6768 38.4578 17.3043 41.0857 20.5455 41.0857Z" fill="white"/>
<g opacity="0.6">
<path fill-rule="evenodd" clip-rule="evenodd" d="M6.46178 41.0867C9.70342 41.0867 12.3313 38.4588 12.3313 35.2172C12.3313 31.9755 9.70342 29.3477 6.46178 29.3477C3.22015 29.3477 0.592285 31.9755 0.592285 35.2172C0.592285 38.4588 3.22015 41.0867 6.46178 41.0867Z" fill="white"/>
</g>
</svg>
