<svg width="135" height="39" viewBox="0 0 135 39" fill="none" xmlns="http://www.w3.org/2000/svg">
<path fill-rule="evenodd" clip-rule="evenodd" d="M32.0451 11.47C34.8962 11.47 37.2075 9.12249 37.2075 6.2267C37.2075 3.33091 34.8962 0.983398 32.0451 0.983398C29.1941 0.983398 26.8828 3.33091 26.8828 6.2267C26.8828 9.12249 29.1941 11.47 32.0451 11.47Z" fill="#FF2D46"/>
<path fill-rule="evenodd" clip-rule="evenodd" d="M32.0451 25.2268C34.8962 25.2268 37.2075 22.8794 37.2075 19.9836C37.2075 17.0877 34.8962 14.7402 32.0451 14.7402C29.1941 14.7402 26.8828 17.0877 26.8828 19.9836C26.8828 22.8794 29.1941 25.2268 32.0451 25.2268Z" fill="#D53D5C"/>
<path fill-rule="evenodd" clip-rule="evenodd" d="M32.0451 38.9837C34.8962 38.9837 37.2075 36.6362 37.2075 33.7404C37.2075 30.8445 34.8962 28.4971 32.0451 28.4971C29.1941 28.4971 26.8828 30.8445 26.8828 33.7404C26.8828 36.6362 29.1941 38.9837 32.0451 38.9837Z" fill="#815EAD"/>
<path fill-rule="evenodd" clip-rule="evenodd" d="M18.8996 25.2268C21.7507 25.2268 24.062 22.8794 24.062 19.9836C24.062 17.0877 21.7507 14.7402 18.8996 14.7402C16.0486 14.7402 13.7373 17.0877 13.7373 19.9836C13.7373 22.8794 16.0486 25.2268 18.8996 25.2268Z" fill="#AB4D85"/>
<path fill-rule="evenodd" clip-rule="evenodd" d="M18.8996 38.9827C21.7507 38.9827 24.062 36.6353 24.062 33.7394C24.062 30.8437 21.7507 28.4961 18.8996 28.4961C16.0486 28.4961 13.7373 30.8437 13.7373 33.7394C13.7373 36.6353 16.0486 38.9827 18.8996 38.9827Z" fill="#576ED6"/>
<path fill-rule="evenodd" clip-rule="evenodd" d="M5.75414 38.9837C8.60522 38.9837 10.9165 36.6362 10.9165 33.7404C10.9165 30.8445 8.60522 28.4971 5.75414 28.4971C2.90306 28.4971 0.591797 30.8445 0.591797 33.7404C0.591797 36.6362 2.90306 38.9837 5.75414 38.9837Z" fill="#2388FF"/>
<path d="M63.1336 31.188C60.0767 31.188 57.6942 28.8125 57.6942 24.9752C57.6942 21.2749 60.0767 18.8994 63.1336 18.8994C66.0555 18.8994 68.483 21.3205 68.483 24.9752C68.483 28.7668 66.0555 31.188 63.1336 31.188ZM57.3795 33.4722C59.0428 36.2588 62.3693 37.3095 64.662 37.3095C70.506 37.3095 75.3609 32.2844 75.3609 25.0665C75.3609 18.0771 70.8206 12.7779 64.5271 12.7779C62.0097 12.7779 59.3574 13.8286 57.874 16.1584V4.18949H51.041V36.7613H57.3795V33.4722Z" fill="#170F49"/>
<path d="M87.077 13.3261H80.289V36.7613H87.1669V27.305C87.1669 22.4169 89.5494 19.3562 93.5054 19.3562C94.1797 19.3562 94.6742 19.4475 95.0338 19.5846V12.9606C94.6742 12.8235 94.1347 12.7779 93.5953 12.7779C90.5384 12.7779 88.2907 14.5138 87.077 17.3918V13.3261Z" fill="#170F49"/>
<path d="M99.0449 36.7613H105.878V13.3261H99.0449V36.7613ZM102.371 2.95605C100.259 2.95605 98.5953 4.50927 98.5953 6.65636C98.5953 8.80345 100.259 10.4024 102.371 10.4024C104.484 10.4024 106.192 8.80345 106.192 6.65636C106.192 4.50927 104.484 2.95605 102.371 2.95605Z" fill="#170F49"/>
<path d="M117.388 25.0209L109.476 36.7613H117.118L121.434 29.7719L125.749 36.7613H133.391L125.479 25.0209L133.391 13.3261H125.614L121.434 20.3612L117.253 13.3261H109.476L117.388 25.0209Z" fill="#170F49"/>
</svg>
